<svg xmlns="http://www.w3.org/2000/svg" viewBox="0 0 256 256" width="256" height="256" role="img" aria-label="Burnout">
  <title>Burnout</title>
  <defs>
    <linearGradient id="tile" x1="0" y1="0" x2="0" y2="1">
      <stop offset="0" stop-color="#17141A"/>
      <stop offset="1" stop-color="#08070A"/>
    </linearGradient>
    <radialGradient id="heat" cx="0.5" cy="0.6" r="0.52">
      <stop offset="0" stop-color="#F97316" stop-opacity="0.34"/>
      <stop offset="0.55" stop-color="#EA580C" stop-opacity="0.1"/>
      <stop offset="1" stop-color="#EA580C" stop-opacity="0"/>
    </radialGradient>
    <linearGradient id="flame" x1="0" y1="0" x2="0" y2="1">
      <stop offset="0" stop-color="#EF4444"/>
      <stop offset="0.42" stop-color="#F97316"/>
      <stop offset="1" stop-color="#FACC15"/>
    </linearGradient>
    <linearGradient id="core" x1="0" y1="0" x2="0" y2="1">
      <stop offset="0" stop-color="#FDE047"/>
      <stop offset="1" stop-color="#FFFBEB"/>
    </linearGradient>
    <linearGradient id="steel" x1="0" y1="0" x2="0" y2="1">
      <stop offset="0" stop-color="#E2E8F0"/>
      <stop offset="1" stop-color="#64748B"/>
    </linearGradient>
  </defs>

  <rect width="256" height="256" rx="56" fill="url(#tile)"/>
  <rect width="256" height="256" rx="56" fill="url(#heat)"/>
  <rect x="1" y="1" width="254" height="254" rx="55" fill="none" stroke="#2A2118" stroke-width="2"/>

  <path fill="url(#flame)" d="M128 34C142 66 164 86 170 112C177 140 168 166 152 178L104 178C88 166 79 140 86 112C90 96 100 86 108 72C111 92 121 98 126 92C132 84 126 56 128 34Z"/>
  <path fill="url(#core)" d="M128 96C136 112 149 124 149 142C149 161 140 174 128 178C116 174 107 161 107 142C107 126 120 114 128 96Z"/>

  <rect x="91" y="168" width="74" height="50" rx="6" fill="url(#steel)"/>
  <rect x="99" y="176" width="58" height="34" rx="3" fill="#0B0A0D" opacity="0.85"/>
  <rect x="99" y="196" width="58" height="14" rx="2" fill="#94A3B8"/>
  <rect x="107" y="200" width="14" height="6" rx="1.5" fill="#FBBF24"/>
  <rect x="135" y="200" width="14" height="6" rx="1.5" fill="#FBBF24"/>
</svg>
